name rise38.3101peak57.3503fall81.6963.mot
datacolumns 19
datarows 27
range 7.90830600000000 7.95164000000000
endheader
time	ground_force1_vx	ground_force1_vy	ground_force1_vz	ground_force1_px	ground_force1_py	ground_force1_pz	ground_force2_vx	ground_force2_vy	ground_force2_vz	ground_force2_px	ground_force2_py	ground_force2_pz	ground_torque1_x	ground_torque1_y	ground_torque1_z	ground_torque2_x	ground_torque2_y	ground_torque2_z	
7.90830600000000	8.23934100000000	684.97767599999997	40.09976300000000	0.23134700000000	0.00000000000000	0.11277700000000	0.00000000000000	0.00000000000000	0.00000000000000	0.00000000000000	0.00000000000000	0.00000000000000	0.00000000000000	16.19193200000000	0.00000000000000	0.00000000000000	0.00000000000000	0.00000000000000	
7.90997900000000	7.92460900000000	686.21067900000003	40.22498300000000	0.23061900000000	0.00000000000000	0.11276000000000	0.00000000000000	0.00000000000000	0.00000000000000	0.00000000000000	0.00000000000000	0.00000000000000	0.00000000000000	16.29078200000000	0.00000000000000	0.00000000000000	0.00000000000000	0.00000000000000	
7.91164500000000	7.59890600000000	687.49265200000002	40.35371300000000	0.22986900000000	0.00000000000000	0.11274400000000	0.00000000000000	0.00000000000000	0.00000000000000	0.00000000000000	0.00000000000000	0.00000000000000	0.00000000000000	16.39362900000000	0.00000000000000	0.00000000000000	0.00000000000000	0.00000000000000	
7.91330700000000	7.26180700000000	688.82209699999999	40.48542800000000	0.22909700000000	0.00000000000000	0.11273000000000	0.00000000000000	0.00000000000000	0.00000000000000	0.00000000000000	0.00000000000000	0.00000000000000	0.00000000000000	16.50024800000000	0.00000000000000	0.00000000000000	0.00000000000000	0.00000000000000	
7.91497400000000	6.91292100000000	690.19753400000002	40.61962400000000	0.22830200000000	0.00000000000000	0.11271700000000	0.00000000000000	0.00000000000000	0.00000000000000	0.00000000000000	0.00000000000000	0.00000000000000	0.00000000000000	16.61041900000000	0.00000000000000	0.00000000000000	0.00000000000000	0.00000000000000	
7.91664400000000	6.55189400000000	691.61750099999995	40.75581600000000	0.22748500000000	0.00000000000000	0.11270600000000	0.00000000000000	0.00000000000000	0.00000000000000	0.00000000000000	0.00000000000000	0.00000000000000	0.00000000000000	16.72393100000000	0.00000000000000	0.00000000000000	0.00000000000000	0.00000000000000	
7.91830700000000	6.17841000000000	693.08055700000000	40.89354400000000	0.22664500000000	0.00000000000000	0.11269600000000	0.00000000000000	0.00000000000000	0.00000000000000	0.00000000000000	0.00000000000000	0.00000000000000	0.00000000000000	16.84058100000000	0.00000000000000	0.00000000000000	0.00000000000000	0.00000000000000	
7.91997000000000	5.79219000000000	694.58528600000000	41.03237400000000	0.22578100000000	0.00000000000000	0.11268800000000	0.00000000000000	0.00000000000000	0.00000000000000	0.00000000000000	0.00000000000000	0.00000000000000	0.00000000000000	16.96017800000000	0.00000000000000	0.00000000000000	0.00000000000000	0.00000000000000	
7.92164800000000	5.39299400000000	696.13029600000004	41.17189500000000	0.22489600000000	0.00000000000000	0.11268100000000	0.00000000000000	0.00000000000000	0.00000000000000	0.00000000000000	0.00000000000000	0.00000000000000	0.00000000000000	17.08253700000000	0.00000000000000	0.00000000000000	0.00000000000000	0.00000000000000	
7.92331200000000	4.98062000000000	697.71422500000006	41.31172500000000	0.22398800000000	0.00000000000000	0.11267500000000	0.00000000000000	0.00000000000000	0.00000000000000	0.00000000000000	0.00000000000000	0.00000000000000	0.00000000000000	17.20748300000000	0.00000000000000	0.00000000000000	0.00000000000000	0.00000000000000	
7.92497100000000	4.55490600000000	699.33574099999998	41.45151100000000	0.22305800000000	0.00000000000000	0.11267000000000	0.00000000000000	0.00000000000000	0.00000000000000	0.00000000000000	0.00000000000000	0.00000000000000	0.00000000000000	17.33485400000000	0.00000000000000	0.00000000000000	0.00000000000000	0.00000000000000	
7.92663800000000	4.11572900000000	700.99354300000005	41.59092700000000	0.22210700000000	0.00000000000000	0.11266600000000	0.00000000000000	0.00000000000000	0.00000000000000	0.00000000000000	0.00000000000000	0.00000000000000	0.00000000000000	17.46449300000000	0.00000000000000	0.00000000000000	0.00000000000000	0.00000000000000	
7.92830400000000	3.66300500000000	702.68636300000003	41.72968000000000	0.22113500000000	0.00000000000000	0.11266300000000	0.00000000000000	0.00000000000000	0.00000000000000	0.00000000000000	0.00000000000000	0.00000000000000	0.00000000000000	17.59625800000000	0.00000000000000	0.00000000000000	0.00000000000000	0.00000000000000	
7.92997800000000	3.19668900000000	704.41296399999999	41.86750500000000	0.22014400000000	0.00000000000000	0.11266200000000	0.00000000000000	0.00000000000000	0.00000000000000	0.00000000000000	0.00000000000000	0.00000000000000	0.00000000000000	17.73001500000000	0.00000000000000	0.00000000000000	0.00000000000000	0.00000000000000	
7.93163700000000	2.71677500000000	706.17214500000000	42.00417100000000	0.21913400000000	0.00000000000000	0.11266100000000	0.00000000000000	0.00000000000000	0.00000000000000	0.00000000000000	0.00000000000000	0.00000000000000	0.00000000000000	17.86563800000000	0.00000000000000	0.00000000000000	0.00000000000000	0.00000000000000	
7.93331300000000	2.22329400000000	707.96273799999994	42.13947700000000	0.21810600000000	0.00000000000000	0.11266100000000	0.00000000000000	0.00000000000000	0.00000000000000	0.00000000000000	0.00000000000000	0.00000000000000	0.00000000000000	18.00301500000000	0.00000000000000	0.00000000000000	0.00000000000000	0.00000000000000	
7.93497400000000	1.71631400000000	709.78360699999996	42.27325700000000	0.21706200000000	0.00000000000000	0.11266200000000	0.00000000000000	0.00000000000000	0.00000000000000	0.00000000000000	0.00000000000000	0.00000000000000	0.00000000000000	18.14203900000000	0.00000000000000	0.00000000000000	0.00000000000000	0.00000000000000	
7.93664400000000	1.19594000000000	711.63364799999999	42.40537600000000	0.21600300000000	0.00000000000000	0.11266300000000	0.00000000000000	0.00000000000000	0.00000000000000	0.00000000000000	0.00000000000000	0.00000000000000	0.00000000000000	18.28261600000000	0.00000000000000	0.00000000000000	0.00000000000000	0.00000000000000	
7.93830900000000	0.66231300000000	713.51179000000002	42.53573300000000	0.21493000000000	0.00000000000000	0.11266500000000	0.00000000000000	0.00000000000000	0.00000000000000	0.00000000000000	0.00000000000000	0.00000000000000	0.00000000000000	18.42465900000000	0.00000000000000	0.00000000000000	0.00000000000000	0.00000000000000	
7.93997900000000	0.11560800000000	715.41699000000006	42.66425800000000	0.21384500000000	0.00000000000000	0.11266800000000	0.00000000000000	0.00000000000000	0.00000000000000	0.00000000000000	0.00000000000000	0.00000000000000	0.00000000000000	18.56809000000000	0.00000000000000	0.00000000000000	0.00000000000000	0.00000000000000	
7.94164500000000	-0.44396800000000	717.34823400000005	42.79091600000000	0.21274800000000	0.00000000000000	0.11267100000000	0.00000000000000	0.00000000000000	0.00000000000000	0.00000000000000	0.00000000000000	0.00000000000000	0.00000000000000	18.71283800000000	0.00000000000000	0.00000000000000	0.00000000000000	0.00000000000000	
7.94330900000000	-1.01617400000000	719.30453000000000	42.91570300000000	0.21164100000000	0.00000000000000	0.11267500000000	0.00000000000000	0.00000000000000	0.00000000000000	0.00000000000000	0.00000000000000	0.00000000000000	0.00000000000000	18.85884000000000	0.00000000000000	0.00000000000000	0.00000000000000	0.00000000000000	
7.94497900000000	-1.60074100000000	721.28491399999996	43.03864900000000	0.21052700000000	0.00000000000000	0.11267900000000	0.00000000000000	0.00000000000000	0.00000000000000	0.00000000000000	0.00000000000000	0.00000000000000	0.00000000000000	19.00604000000000	0.00000000000000	0.00000000000000	0.00000000000000	0.00000000000000	
7.94664500000000	-2.19736800000000	723.28843900000004	43.15981400000000	0.20940500000000	0.00000000000000	0.11268300000000	0.00000000000000	0.00000000000000	0.00000000000000	0.00000000000000	0.00000000000000	0.00000000000000	0.00000000000000	19.15439000000000	0.00000000000000	0.00000000000000	0.00000000000000	0.00000000000000	
7.94831200000000	-2.80572700000000	725.31417399999998	43.27929000000000	0.20827900000000	0.00000000000000	0.11268700000000	0.00000000000000	0.00000000000000	0.00000000000000	0.00000000000000	0.00000000000000	0.00000000000000	0.00000000000000	19.30384400000000	0.00000000000000	0.00000000000000	0.00000000000000	0.00000000000000	
7.94997000000000	-3.42546600000000	727.36120400000004	43.39719900000000	0.20714900000000	0.00000000000000	0.11269200000000	0.00000000000000	0.00000000000000	0.00000000000000	0.00000000000000	0.00000000000000	0.00000000000000	0.00000000000000	19.45436300000000	0.00000000000000	0.00000000000000	0.00000000000000	0.00000000000000	
7.95164000000000	-4.05620500000000	729.42862000000002	43.51369100000000	0.20601600000000	0.00000000000000	0.11269700000000	0.00000000000000	0.00000000000000	0.00000000000000	0.00000000000000	0.00000000000000	0.00000000000000	0.00000000000000	19.60591400000000	0.00000000000000	0.00000000000000	0.00000000000000	0.00000000000000	
